<?xml version="1.0" encoding="utf-8"?>
<!-- Generator: Adobe Illustrator 25.2.0, SVG Export Plug-In . SVG Version: 6.00 Build 0)  -->
<svg version="1.1" id="Layer_1" xmlns="http://www.w3.org/2000/svg" xmlns:xlink="http://www.w3.org/1999/xlink" x="0px" y="0px"
	 viewBox="0 0 1157.48 1157.48" style="enable-background:new 0 0 1157.48 1157.48;" xml:space="preserve">
<style type="text/css">
	.st0{fill-rule:evenodd;clip-rule:evenodd;fill:#222831;}
	.st1{fill-rule:evenodd;clip-rule:evenodd;fill:url(#SVGID_1_);}
</style>
<rect x="-21.26" y="-21.26" class="st0" width="1200" height="1200"/>
<linearGradient id="SVGID_1_" gradientUnits="userSpaceOnUse" x1="323.2736" y1="312.0693" x2="836.5639" y2="827.6822">
	<stop  offset="0" style="stop-color:#FFD13E"/>
	<stop  offset="1" style="stop-color:#FFC843"/>
</linearGradient>
<path class="st1" d="M929.45,384.84c-81.68-21.74-221.33,34.03-297.31,62.58c-12.73,4.83-17.34,2.86-27.45-5.05
	c-22.62-18.23-57.09-23.94-90.03-12.3l-135.48,47.65c-11.42,4.17-4.18,25.03,7.25,21.08l134.6-47.43
	c11.42-3.95,18.88,16.91,7.47,21.08l-134.61,47.21c-11.42,4.18-4.17,25.04,7.47,21.08l134.38-47.43
	c11.63-3.95,18.88,16.91,7.46,20.86L408.6,561.6c-11.41,4.17-3.95,25.03,7.47,21.08l134.61-47.43c11.42-4.17,18.66,16.91,7.25,20.86
	l-134.61,47.42c-11.42,3.96-3.95,25.04,7.47,20.86l135.48-47.65c31.18-10.98,53.58-34.69,61.49-61.26
	c5.05-17.13,3.07-16.69,19.76-23.93c184.89-80.37,362.31,41.28,225.95,263.5C749.62,957.07,466.8,967.38,324.29,792.38
	c36.23-9.67,69.39-23.27,92.88-38.43c-54.46,15.6-134.6,31.85-186.43,1.32c95.74,25.69,264.82-45.01,350.89-81.68
	c7.47-3.07,15.81-3.07,21.74,2.42c66.53,61.7,229.9-8.56,204.87-91.79c-23.72-79.05-173.25-53.58-213.43,16.47
	c-12.07,21.08-13.4,19.99-33.38,32.06c-128.9,77.72-424.67,32.06-263.5-230.78C416.29,208.95,685.5,188.09,833.5,349.05
	c-36.45,9.44-66.53,21.96-90.47,37.11C797.49,370.56,877.63,354.31,929.45,384.84L929.45,384.84z M655.86,569.95
	c-41.73,51.38-21.52,101.67,31.61,108.48C600.52,687.86,588.88,611.45,655.86,569.95L655.86,569.95z"/>
</svg>
